# xmcd CD database file
#
# Track frame offsets:
#	150
#	15263
#	31213
#
# Disc length: 616 seconds
#
# Revision: 2
# Processed by: cddbd v1.5.2PL0 Copyright (c) Steve Scherf et al.
# Submitted via: CDex 1.70beta2
#
DISCID=12026603
DTITLE=MAX - KISS ME KISS ME BABY
DYEAR=2004
DGENRE=Undefined
TTITLE0=KISS ME KISS ME BABY(original)
TTITLE1=KISS ME KISS ME BABY(Randomizer Mix)
TTITLE2=KISS ME KISS ME BABY(Karaoke)
EXTD=YEAR: 2004
EXTT0=
EXTT1=
EXTT2=
PLAYORDER=
